<svg xmlns="http://www.w3.org/2000/svg" width="15.438" height="15.438" viewBox="0 0 15.438 15.438"><path fill="currentColor" fill-opacity=".87" d="M13.926 14.284V.525c0-.419-.524-.525-.524-.525H3.085C1.512 0 1.512 1.452 1.512 1.452v13.427c0 .308.249.559.56.559h10.069a.56.56 0 0 0 .559-.559l.666-.002c.601 0 .56-.593.56-.593M8.02 6.846v6.06H6.861v-6.06H4.307V5.687h2.554v-2.05H8.02v2.05h2.553l.001 1.159zm5.258 6.708s-.1.364-.578.364V2.035a.56.56 0 0 0-.559-.559l-9.528-.005c0-.384.578-.579.578-.579H12.7c.596 0 .578.525.578.525z"/></svg>