<svg xmlns="http://www.w3.org/2000/svg" width="60" height="60" viewBox="0 0 60 60"><path fill="currentColor" fill-opacity=".87" d="M52.25 19.67c-.4 0-.79.05-1.16.14-.4-2.21-2.35-3.9-4.68-3.9-2.4 0-4.38 1.78-4.71 4.09H35v-4.81a4.73 4.73 0 0 0 3.59-4.6A4.77 4.77 0 0 0 35.09 6c.11-.4.17-.82.17-1.25 0-2.62-2.13-4.75-4.75-4.75s-4.75 2.13-4.75 4.75c0 .4.05.79.14 1.16-2.22.41-3.9 2.35-3.9 4.68 0 2.36 1.74 4.33 4 4.69V20h-7.81a4.73 4.73 0 0 0-4.6-3.59c-2.19 0-4.03 1.49-4.59 3.5a4.8 4.8 0 0 0-1.25-.17C5.13 19.74 3 21.87 3 24.5s2.13 4.75 4.75 4.75c.4 0 .79-.05 1.16-.14A4.766 4.766 0 0 0 13.59 33c2.37 0 4.33-1.74 4.69-4H26v15.84c-2.03.55-3.51 2.4-3.51 4.57a4.77 4.77 0 0 0 3.5 4.59c-.11.41-.17.82-.17 1.25 0 2.62 2.13 4.75 4.75 4.75s4.75-2.13 4.75-4.75c0-.4-.05-.79-.15-1.16 2.21-.4 3.9-2.35 3.9-4.68 0-2.39-1.78-4.38-4.09-4.71V29h6.84c.55 2.03 2.41 3.51 4.57 3.51 2.19 0 4.03-1.49 4.59-3.5.41.11.82.17 1.25.17 2.62 0 4.75-2.13 4.75-4.75s-2.11-4.76-4.73-4.76"/></svg>