<svg xmlns="http://www.w3.org/2000/svg" width="300" height="300" viewBox="0 0 300 300"><path fill="currentColor" fill-opacity=".87" d="M100.2 33.3c-2.8 2.9-2.9 8.7-.4 11 1.3 1.2 3.7 1.7 8 1.7h6.2v15l-5.1-4c-6-4.7-13-7-21.3-7-23.1.1-38.9 15.6-33.2 32.7 6 18 30.8 19.3 39.7 2.1 2.1-4.1 2.6-13.6.9-16.9-1.8-3.2.7-2.3 5.5 2.2 5.2 4.8 5.5 6.5 1.9 13.7-3.7 7.4-10.2 12.7-26 21.1-7.6 4.1-16.7 9.3-20 11.7-7 4.9-14.7 13.1-17.4 18.3-4.8 9.6-4 23 1.8 29.4 1.6 1.8 1.5 1.9-.3 2.9-4.5 2.5-9.5 8.9-11.1 14.4-3.3 11.5 1 22 12 29 2.6 1.6 2.8 2.2 2.4 6.4-.6 5.8-4.5 14.5-8.8 19.3-2.9 3.4-3.7 3.7-8.4 3.7-4.2 0-5.7.5-7.4 2.3-2.9 3.1-2.9 7.7.1 10.5 2.3 2.2 2.8 2.2 34.3 2.2h32.1l2.1-2.3c2.9-3.1 2.9-7.7-.1-10.5-1.8-1.7-3.5-2.2-8.2-2.2-5.5 0-6-.2-9.5-3.9-4.2-4.3-8.4-12.6-9.5-18.2-.7-3.5-.6-3.6 4.1-5.4 12.7-4.8 19.5-17.7 16-29.9-.9-3.1-2.7-6.8-4-8.3l-2.3-2.7 9.6-4.7c10.7-5.3 19.1-12.2 25.8-21.2l4.3-5.9V240h-6.3c-7.7 0-9.7 1.6-9.7 7.7 0 7.4-.7 7.3 37.2 7.3h33.5l2.1-2.3c2.9-3.1 2.9-7.7-.1-10.5-1.9-1.8-3.5-2.2-8.5-2.2H156V46h6.8c5.4 0 7.2-.4 8.5-1.8 2.5-2.8 2.2-8.4-.6-11-2.3-2.2-2.8-2.2-35.3-2.2h-33.1zm9.3 79.9c-3.1 12.2-13.7 28-23.4 34.9-7.9 5.7-16.2 6.5-17.4 1.8-1.4-5.2 3.6-11.5 20.4-26 7-6 14.7-13.1 17-15.8 5.2-5.8 5.9-4.7 3.4 5.1M234 125.5c-2.2 2.3-2.2 2.9-1.6 12.8.7 10.4.7 10.6-2.9 20.3-4 10.6-7.1 16.7-17.2 33.6-9.5 15.9-15.9 30-18.9 41.7-2.7 10.6-2.9 18-.5 20.4 1.4 1.4 17.7 1.6 26.2.4l5.5-.8 4.1-8.2c3.7-7.4 12.2-18.8 14.9-20 .7-.3 2.1 4.6 4 13.6l2.9 14.1 3.5.8c1.9.4 9.1 1 16 1.4 12.3.6 12.5.6 14.7-1.8l2.3-2.4-4.5-22.4c-6.5-33-10.6-64-12.1-90.7-.8-14.3.7-13.1-16.4-13.9-6.3-.2-12.9-.7-14.6-.9-2.4-.2-3.8.3-5.4 2m5.9 67.6 1.8 12.4-11.1 11.7c-6.1 6.5-11.6 11.8-12.2 11.8s-1.7-1.4-2.4-3c-1-2.4-1-3.6.1-6.3 4-10.2 21.1-41.7 21.6-40 .2.6 1.2 6.6 2.2 13.4"/></svg>