<svg xmlns="http://www.w3.org/2000/svg" width="512" height="512" viewBox="0 0 512 512"><path fill="currentColor" fill-opacity=".87" d="M83.5 367.3c-9.2 0-16.7 7.5-16.7 16.7v50.1h33.4V384c0-9.2-7.5-16.7-16.7-16.7M150.3 367.3c-9.2 0-16.7 7.5-16.7 16.7v50.1H167V384c0-9.2-7.5-16.7-16.7-16.7M283.8 267.1c-9.2 0-16.7 7.5-16.7 16.7v50.1h33.4v-50.1c0-9.2-7.5-16.7-16.7-16.7M417.4 367.3c-9.2 0-16.7 7.5-16.7 16.7v50.1h33.4V384c0-9.2-7.5-16.7-16.7-16.7"/><path fill="currentColor" fill-opacity=".87" d="M510.2 309.8 476.8 243c-2.8-5.7-8.6-9.2-14.9-9.2h-94.6v-50.1c0-37.7-45.6-66.1-66.8-77.2V66.8h16.7c9.2 0 16.7-7.5 16.7-16.7s-7.5-16.7-16.7-16.7h-16.7V16.7C300.5 7.5 293 0 283.8 0s-16.7 7.5-16.7 16.7v16.7h-16.7c-9.2 0-16.7 7.5-16.7 16.7s7.5 16.7 16.7 16.7h16.7v39.7c-21.2 11.1-66.8 39.4-66.8 77.2V219c-6.8-6.6-14.7-13.1-23.6-19.5-16.6-12-33.1-21.1-43.2-26.3v-39.6h16.7c9.2 0 16.7-7.5 16.7-16.7s-7.5-16.7-16.7-16.7h-16.7V83.5c0-9.2-7.5-16.7-16.7-16.7s-16.7 7.5-16.7 16.7v16.7H83.5c-9.2 0-16.7 7.5-16.7 16.7s7.5 16.7 16.7 16.7h16.7v39.6c-10.1 5.2-26.6 14.2-43.2 26.3-37.8 27.3-57 55.7-57 84.3v211.5c0 9.2 7.5 16.7 16.7 16.7h467.5c9.2 0 16.7-7.5 16.7-16.7V333c3.5-1.3 6.6-3.7 8.6-7 3-4.9 3.3-11.1.7-16.2M200.3 478.6H33.4V333.9h167v144.7zm0-178.1H33.4v-16.7c0-33.1 56-68 83.5-81.7 27.5 13.7 83.5 48.4 83.5 81.7v16.7zm133.6 178.1H233.7V233.7h100.2zm0-278.3H233.7v-16.7c0-16 27.8-36.8 50.1-48.2 22.3 11.5 50.1 32.3 50.1 48.2zm133.6 278.3H367.3V333.9h100.2zM367.3 300.5v-33.4h84.3l16.7 33.4z"/></svg>