<svg xmlns="http://www.w3.org/2000/svg" width="512" height="512" viewBox="0 0 512 512"><path fill="currentColor" fill-opacity=".87" d="M426.7 0c-46.9 0-85.3 38.4-85.3 85.3V192c0 12.8 8.5 21.3 21.3 21.3h128c12.8 0 21.3-8.5 21.3-21.3V85.3C512 38.4 473.6 0 426.7 0m42.6 170.7H384V85.3c0-23.5 19.2-42.7 42.7-42.7s42.7 19.2 42.7 42.7v85.4zM362.7 384c-12.8 0-21.3 8.5-21.3 21.3v21.3c0 12.8 8.5 21.3 21.3 21.3s21.3-8.4 21.3-21.2v-21.3c0-12.9-8.5-21.4-21.3-21.4"/><path fill="currentColor" fill-opacity=".87" d="M362.7 405.3c-12.8 0-21.3 8.5-21.3 21.3 0 23.5-19.2 42.7-42.7 42.7S256 450.1 256 426.7v-21.3c0-12.8-8.5-21.3-21.3-21.3s-21.3 8.5-21.3 21.3v21.3c0 46.9 38.4 85.3 85.3 85.3s85.3-38.4 85.3-85.3c0-12.8-8.5-21.4-21.3-21.4"/><path fill="currentColor" fill-opacity=".87" d="M426.7 0h-320c-36.3 0-64 27.7-64 64v341.3c0 12.8 8.5 21.3 21.3 21.3s21.3-8.5 21.3-21.3V64c0-12.8 8.5-21.3 21.3-21.3H352c-6.4 12.8-10.7 27.7-10.7 42.7v320c0 12.8 8.5 21.3 21.3 21.3s21.4-8.6 21.4-21.4v-320c0-23.5 19.2-42.7 42.7-42.7 27.7.1 27.7-42.6 0-42.6"/><path fill="currentColor" fill-opacity=".87" d="M298.7 469.3c-23.5 0-42.7-19.2-42.7-42.7v-21.3c0-12.8-8.5-21.3-21.3-21.3H21.3C8.5 384 0 392.5 0 405.3v21.3c0 47 38.4 85.4 85.3 85.4h213.3c27.8 0 27.8-42.7.1-42.7m-213.4 0c-23.5 0-42.7-19.2-42.7-42.7h170.7c0 14.9 4.3 29.9 10.7 42.7zM192 106.7h-42.7c-12.8 0-21.3 8.5-21.3 21.3s8.5 21.3 21.3 21.3H192c12.8 0 21.3-8.5 21.3-21.3s-8.5-21.3-21.3-21.3M277.3 192h-42.7c-12.8 0-21.3 8.5-21.3 21.3s8.5 21.3 21.3 21.3h42.7c12.8 0 21.3-8.5 21.3-21.3.1-12.8-8.5-21.3-21.3-21.3M277.3 106.7H256c-12.8 0-21.3 8.5-21.3 21.3s8.5 21.3 21.3 21.3h21.3c12.8 0 21.3-8.5 21.3-21.3s-8.5-21.3-21.3-21.3M192 277.3h-42.7c-12.8 0-21.3 8.5-21.3 21.3s8.5 21.3 21.3 21.3H192c12.8 0 21.3-8.5 21.3-21.3 0-12.7-8.5-21.3-21.3-21.3M277.3 277.3H256c-12.8 0-21.3 8.5-21.3 21.3s8.5 21.3 21.3 21.3h21.3c12.8 0 21.3-8.5 21.3-21.3.1-12.7-8.5-21.3-21.3-21.3M149.3 192c-12.8 0-21.3 8.5-21.3 21.3s8.5 21.3 21.3 21.3 21.3-8.5 21.3-21.3c.1-12.8-8.5-21.3-21.3-21.3"/></svg>