<svg xmlns="http://www.w3.org/2000/svg" width="335.08" height="335.079" viewBox="0 0 335.08 335.079"><path fill="currentColor" fill-opacity=".87" d="M311.2 115.8c-1.4-10.2-1.5-27.7 7.9-33.6.2-.1.3-.3.4-.4 7.7-2.5 13.1-5.9 8.9-10.6L214.3 36.8 29.6 62.4s-21.2 3-19.3 35.9c1 17.9 6.6 26.7 11.5 31l-15.2 4.6c-4.2 4.7 1.1 8.1 8.9 10.6l.4.4c9.5 5.9 9.3 23.4 7.9 33.6-34 9.6-21.8 12.8-21.8 12.8l7.5 1.8C4.3 197.8-.9 206.8 0 223.9 1.9 256.8 19.3 259 19.3 259l120.9 39.3 182.5-44.2s12.2-3.1-21.8-12.8c-1.4-10.2-1.6-27.7 7.9-33.6.2-.1.3-.3.4-.4 7.7-2.5 13.1-5.9 8.9-10.6l-7.9-2.4c5.3-3.2 13.2-11.5 14.5-33.2.9-14.9-3-23.6-7.5-28.8l15.7-3.8c0 .1 12.2-3.1-21.7-12.7m-152.7-.4 30.7-6.3 103.7-21.3 15.5-3.2c-4.9 9-4.7 21.4-3.9 29.4.2 1.8.4 3.4.6 4.7l-17 4.1-130.9 32.6zM26.7 147.3l15.4 3.2 99.6 20.5 8.7 1.8 26.1 5.4 1.3 40-134.5-33.5-13.3-3.3c.2-1.3.4-2.9.6-4.7.8-8 1.1-20.3-3.9-29.4m-6-50.5c-.2-8.7 1.4-15.1 4.5-18.3 2-2.1 4.4-2.5 6-2.5.9 0 1.5.1 1.5.1l79.6 26L152 115l-1.3 40.3-111.4-31.2-5.9-1.6c-.2-.1-.5-.1-.7-.1-.4-.1-11.5-1.1-12-25.6m119.9 184.1L23.3 248c-.2-.1-.5-.1-.7-.1-.5 0-11.5-1-12-25.5-.2-8.8 1.4-15.1 4.5-18.3 2-2.1 4.4-2.5 6-2.5.9 0 1.5.1 1.5.1l119.3 38.9zm153.7-41.4c.2 1.8.4 3.4.6 4.7L147.1 281l1.3-40 31.6-6.5 4.7 1.1 17.5-5.7 80.6-16.6 15.5-3.2c-5 9-4.8 21.4-4 29.4m8.1-54.4c-.3 0-.5 0-.8.1l-11.1 3.1-106.1 29.8-1.3-40.3 34.8-11.4 84.3-27.5s4.4-1 7.7 2.3c3.1 3.2 4.7 9.5 4.5 18.3-.6 24.5-11.6 25.6-12 25.6"/></svg>